<?xml version="1.0" standalone="no"?>
<!DOCTYPE svg PUBLIC "-//W3C//DTD SVG 20010904//EN"
 "http://www.w3.org/TR/2001/REC-SVG-20010904/DTD/svg10.dtd">
<svg version="1.0" xmlns="http://www.w3.org/2000/svg"
 width="576.000000pt" height="576.000000pt" viewBox="0 0 576.000000 576.000000"
 preserveAspectRatio="xMidYMid meet">
<metadata>
Created by potrace 1.14, written by Peter Selinger 2001-2017
</metadata>
<g transform="translate(0.000000,576.000000) scale(0.100000,-0.100000)"
fill="#000000" stroke="none">
<path d="M5243 5421 c-32 -20 -62 -57 -117 -148 -115 -187 -326 -397 -530
-528 -58 -37 -248 -135 -261 -135 -4 0 -21 -6 -38 -14 -46 -20 -151 -53 -227
-70 -69 -16 -95 -21 -200 -35 -36 -5 -299 -9 -585 -10 -286 -2 -538 -4 -560
-6 -295 -29 -547 -105 -780 -237 -424 -239 -745 -629 -894 -1086 -26 -81 -68
-269 -78 -352 -10 -79 -10 -426 -1 -435 4 -4 60 28 125 71 65 44 127 84 138
90 275 157 422 230 628 313 114 46 307 116 347 125 9 2 54 16 100 30 183 55
539 130 720 152 19 2 53 6 75 9 22 2 67 7 100 10 33 4 71 8 84 10 51 9 295 19
441 19 130 1 160 -2 188 -17 107 -58 102 -221 -8 -274 -40 -19 -67 -22 -265
-27 -121 -3 -231 -8 -245 -10 -14 -3 -63 -7 -110 -11 -47 -3 -94 -8 -105 -10
-11 -2 -42 -7 -70 -10 -114 -14 -373 -58 -417 -71 -10 -3 -30 -7 -45 -10 -54
-9 -329 -86 -413 -115 -47 -17 -92 -32 -100 -33 -41 -10 -291 -115 -416 -175
-716 -345 -1317 -908 -1638 -1535 -71 -138 -90 -200 -84 -280 16 -213 231
-351 432 -276 85 32 136 85 197 203 29 56 69 131 91 166 21 34 38 67 38 72 0
5 4 9 9 9 5 0 13 9 16 20 3 11 12 26 18 32 7 7 44 56 83 108 85 112 140 176
249 285 114 114 198 186 205 178 3 -5 26 -33 51 -63 205 -253 494 -464 799
-583 133 -52 318 -100 435 -112 33 -4 78 -9 100 -11 52 -6 245 -6 310 1 28 2
79 7 114 10 36 3 74 8 85 10 12 2 43 7 70 10 101 12 298 59 431 103 406 133
755 350 1071 666 387 388 630 809 814 1411 13 44 57 225 64 265 3 19 8 46 11
60 24 124 34 198 52 385 16 163 8 675 -12 770 -2 11 -6 38 -9 60 -7 60 -16
117 -21 141 -3 12 -7 39 -10 60 -4 21 -11 57 -17 79 -6 22 -13 54 -15 70 -10
60 -86 310 -129 426 -83 221 -110 256 -205 265 -43 4 -61 1 -86 -15z"/>
</g>
</svg>
